<?xml version="1.0" standalone="no"?>
<!DOCTYPE svg PUBLIC "-//W3C//DTD SVG 20010904//EN"
 "http://www.w3.org/TR/2001/REC-SVG-20010904/DTD/svg10.dtd">
<svg version="1.0" xmlns="http://www.w3.org/2000/svg"
 width="512.000000pt" height="512.000000pt" viewBox="0 0 512.000000 512.000000"
 preserveAspectRatio="xMidYMid meet">

<g transform="translate(0.000000,512.000000) scale(0.100000,-0.100000)"
fill="#000000" stroke="none">
<path d="M1765 4926 c-257 -33 -443 -91 -664 -207 -795 -416 -1192 -1319 -966
-2194 150 -580 592 -1075 1154 -1294 189 -74 377 -116 568 -128 l102 -6 3
-356 c3 -342 4 -358 25 -396 29 -55 90 -114 143 -139 l45 -21 1309 -3 c1501
-3 1380 -10 1475 86 97 97 91 30 91 1047 0 1017 6 950 -90 1047 -90 90 -79 88
-647 88 -457 0 -484 1 -479 18 49 166 68 294 73 497 6 217 -8 352 -57 541
-167 647 -679 1172 -1325 1359 -222 64 -541 90 -760 61z m545 -176 c708 -129
1268 -683 1411 -1396 27 -137 37 -401 20 -541 -13 -103 -41 -236 -67 -315
l-16 -48 -200 0 c-187 0 -200 1 -193 18 81 198 123 437 110 622 -25 357 -159
655 -405 900 -203 204 -439 330 -726 386 -134 27 -386 24 -524 -5 -274 -58
-502 -182 -701 -380 -162 -163 -269 -336 -340 -553 -83 -255 -86 -555 -8 -821
126 -427 468 -776 899 -916 86 -28 247 -61 302 -61 94 0 88 12 88 -196 l0
-184 -52 0 c-77 0 -246 26 -357 54 -512 130 -955 506 -1169 992 -177 401 -197
855 -58 1279 39 117 156 346 233 455 87 123 292 327 413 412 226 160 509 273
765 307 44 6 94 13 110 15 73 11 355 -4 465 -24z m-81 -535 c91 -18 229 -64
306 -102 187 -94 392 -281 497 -452 204 -332 239 -743 95 -1101 l-43 -105
-109 -2 -110 -3 -40 67 c-84 140 -279 306 -433 369 l-70 29 62 65 c102 109
146 220 146 370 0 154 -46 265 -156 377 -135 138 -318 191 -503 148 -126 -30
-261 -126 -331 -235 -110 -171 -110 -408 -1 -578 16 -26 52 -69 80 -96 l50
-49 -72 -31 c-209 -91 -382 -258 -490 -471 -19 -38 -40 -89 -47 -112 -7 -24
-17 -43 -21 -43 -15 0 -122 172 -160 258 -76 174 -117 393 -104 567 22 302
135 560 336 769 170 178 359 289 589 347 161 41 359 46 529 14z m-76 -523 c75
-35 148 -106 185 -181 24 -50 27 -67 27 -161 0 -94 -3 -111 -27 -161 -38 -76
-109 -146 -188 -183 -58 -27 -75 -31 -155 -31 -80 0 -97 4 -155 31 -80 38
-149 105 -187 182 -25 51 -28 67 -28 162 0 95 3 111 28 162 49 99 149 181 254
208 68 17 177 5 246 -28z m-33 -892 c178 -29 330 -107 463 -241 48 -48 87 -92
87 -98 0 -6 -93 -11 -247 -13 -279 -3 -300 -8 -376 -82 -77 -77 -82 -94 -85
-343 l-3 -223 -56 0 c-79 0 -242 36 -345 75 -111 43 -198 91 -299 166 -60 45
-79 65 -79 83 0 67 79 257 145 346 41 56 146 156 205 197 170 115 389 164 590
133z m2699 -528 c19 -10 43 -34 53 -53 17 -32 18 -80 18 -904 0 -824 -1 -872
-18 -904 -10 -19 -34 -43 -53 -53 -32 -17 -93 -18 -1312 -18 -1407 0 -1327 -4
-1367 62 -20 32 -20 48 -20 913 0 865 0 881 20 913 40 65 -41 61 1365 62 1221
0 1282 -1 1314 -18z"/>
<path d="M2899 2116 c-20 -7 -51 -23 -69 -36 -35 -25 -90 -96 -90 -117 0 -10
-34 -13 -167 -13 -177 -1 -188 -3 -212 -48 -16 -30 -7 -65 21 -92 20 -18 35
-20 189 -20 165 0 167 0 173 -22 9 -36 63 -96 114 -126 40 -23 58 -27 122 -27
57 0 85 6 116 22 49 26 98 75 119 119 l16 34 684 0 684 0 27 23 c37 33 37 81
0 114 l-27 23 -684 0 -684 0 -16 34 c-53 112 -200 174 -316 132z m131 -161
c91 -47 50 -185 -54 -185 -14 0 -40 13 -58 29 -27 24 -33 36 -33 71 0 35 6 47
33 71 36 32 69 36 112 14z"/>
<path d="M3928 1566 c-67 -18 -126 -63 -157 -118 l-26 -47 -673 -3 -674 -3
-24 -28 c-30 -36 -30 -68 0 -104 l24 -28 675 -3 675 -3 12 -29 c7 -16 28 -46
48 -66 120 -123 335 -93 413 59 l19 37 166 0 c185 0 223 9 243 57 17 42 0 80
-44 98 -25 11 -78 15 -199 15 l-166 0 -19 38 c-52 102 -182 158 -293 128z
m136 -187 c36 -43 35 -91 -3 -130 -52 -51 -133 -36 -161 30 -27 66 20 131 94
131 37 0 48 -5 70 -31z"/>
<path d="M3239 1006 c-20 -7 -51 -23 -69 -36 -35 -25 -90 -96 -90 -117 0 -11
-61 -13 -338 -13 -326 0 -339 -1 -360 -20 -40 -38 -37 -93 7 -127 12 -9 104
-12 352 -13 l336 0 18 -41 c53 -117 218 -172 340 -114 47 23 108 83 125 125
l12 30 514 0 513 0 27 23 c37 33 37 81 0 114 l-27 23 -512 0 -512 0 -27 49
c-58 105 -197 157 -309 117z m158 -181 c52 -60 16 -151 -63 -162 -36 -4 -46
-1 -74 24 -27 24 -33 37 -34 72 -1 37 4 47 33 73 29 26 39 30 75 25 27 -4 49
-15 63 -32z"/>
</g>
</svg>
