<?xml version="1.0" standalone="no"?>
<!DOCTYPE svg PUBLIC "-//W3C//DTD SVG 20010904//EN"
 "http://www.w3.org/TR/2001/REC-SVG-20010904/DTD/svg10.dtd">
<svg version="1.0" xmlns="http://www.w3.org/2000/svg"
 width="512.000000pt" height="512.000000pt" viewBox="0 0 512.000000 512.000000"
 preserveAspectRatio="xMidYMid meet">

<g transform="translate(0.000000,512.000000) scale(0.100000,-0.100000)"
fill="#000000" stroke="none">
<path d="M3239 4840 c-565 -89 -1003 -512 -1116 -1077 -23 -119 -23 -365 0
-486 106 -539 510 -949 1047 -1064 118 -25 410 -25 527 0 174 37 339 107 485
203 95 63 260 223 331 322 342 476 338 1109 -11 1580 -68 91 -230 247 -320
306 -144 95 -306 164 -472 201 -87 19 -384 29 -471 15z m466 -344 c281 -83
498 -261 628 -514 81 -159 111 -282 111 -462 0 -180 -30 -303 -111 -462 -129
-252 -343 -428 -628 -514 -84 -26 -102 -28 -270 -28 -168 0 -186 2 -270 28
-345 104 -594 348 -699 683 -129 415 39 890 398 1128 105 69 162 97 265 129
125 40 171 45 336 42 126 -3 164 -8 240 -30z"/>
<path d="M3080 4167 c-292 -84 -435 -401 -304 -677 32 -69 56 -96 297 -338
144 -146 276 -271 294 -278 18 -8 48 -14 68 -14 20 0 50 6 68 14 18 7 150 132
294 278 246 247 264 268 300 343 35 74 38 88 41 185 3 88 0 116 -18 169 -44
133 -129 228 -258 289 -75 36 -80 37 -192 37 -96 0 -125 -4 -176 -23 l-60 -23
-55 22 c-67 27 -230 36 -299 16z m211 -332 c105 -77 164 -81 261 -16 52 35 69
41 112 41 60 0 107 -25 136 -72 25 -42 27 -133 4 -168 -25 -37 -357 -370 -369
-370 -6 0 -93 82 -192 183 -151 152 -183 189 -192 225 -14 50 -2 105 31 147
46 59 150 74 209 30z"/>
<path d="M1800 4546 c-450 -157 -809 -478 -1015 -908 -96 -201 -146 -379 -166
-598 l-11 -125 -169 -371 c-183 -403 -189 -421 -147 -484 46 -67 65 -74 215
-80 l137 -5 77 -309 c42 -169 85 -327 95 -349 27 -58 105 -134 171 -165 l58
-27 297 -3 297 -3 3 -367 c3 -411 3 -407 75 -457 68 -45 169 -27 216 39 22 30
22 38 27 411 l5 379 120 13 c305 30 571 118 696 231 82 73 88 161 19 236 -35
37 -42 40 -101 44 -62 3 -66 2 -132 -42 -105 -69 -236 -113 -427 -142 -130
-19 -985 -33 -1016 -16 -19 11 -59 132 -46 142 4 4 36 14 72 24 134 36 309
151 375 245 37 55 41 134 9 178 -34 46 -82 73 -130 73 -61 0 -84 -11 -159 -79
-68 -62 -142 -104 -213 -119 l-40 -9 -37 147 c-20 81 -45 162 -56 179 -26 43
-89 71 -161 71 -32 0 -58 2 -58 4 0 2 55 123 122 268 l121 263 8 121 c15 220
63 394 160 585 173 335 475 593 831 710 129 42 168 83 168 176 0 87 -68 154
-157 153 -21 -1 -81 -16 -133 -34z"/>
<path d="M3552 1983 c-42 -20 -59 -45 -115 -173 -181 -410 -253 -756 -260
-1240 -2 -171 0 -188 19 -220 63 -108 219 -108 274 1 16 30 20 59 20 136 1
442 73 811 227 1163 78 177 82 197 52 257 -31 62 -77 93 -138 93 -25 0 -61 -8
-79 -17z"/>
</g>
</svg>
